<svg id="Layer_1" enable-background="new 0 0 512 512" height="512" viewBox="0 0 512 512" width="512" xmlns="http://www.w3.org/2000/svg"><g id="XMLID_1_"><g id="XMLID_821_"><g clip-rule="evenodd" fill-rule="evenodd"><path id="XMLID_1960_" d="m77 130h72v72h-72z" fill="#15294e"/><path id="XMLID_1957_" d="m149 130h230v113h-230z" fill="#15294e"/><path id="XMLID_1950_" d="m149 88h230v42h-230z" fill="#eaeae0"/></g><path id="XMLID_1948_" d="m307.6 58-18-9.7-10.6-23.1 83-7.2h34s68 0 68 68.3c0 43.5-22.3 74.7-22.3 74.7l-12.7 26" fill="#504c43"/><path id="XMLID_1931_" d="m366.4 79.5-58.8-21.5-12.6 37.7 8 16.6-30 31 7.3 10 16.7 6 6 55.7 24 2.7 32-8 7.5 57.4 72-20.2-9.5-59.9-26.5-33.5z" fill="#f0917b"/><path id="XMLID_1930_" d="m327 217.9 44.5-31.4 7.5-32.5h11.5l10.5 56.6-18.2 52-16.3 4.6-7.5-57.4z" fill="#e86b4d"/><path id="XMLID_1908_" d="m335 117h-19c-2.8 0-5-2.2-5-5v-12h10v7h14z" fill="#35322b"/><path id="XMLID_1907_" clip-rule="evenodd" d="m315.5 170.4 1 9.9-16.7 1.6-1-9.9z" fill="#504c43" fill-rule="evenodd"/><path id="XMLID_1906_" d="m362 5h34l-8.3 124h-17.7z" fill="#eaeae0"/><path id="XMLID_1905_" d="m413 129c0-18.8-15.2-34-34-34s-34 15.2-34 34 15.2 34 34 34 34-15.2 34-34" fill="#1f3e76"/><path id="XMLID_1904_" d="m77 202-72 30v-132l72 30z" fill="#1f3e76"/><path id="XMLID_1852_" d="m193.7 386c-27.1-54.3-54.9-189.6-54.9-189.6l-27.1-23.1-16.7-85.4 57.5-17.5 17 6.8 7.4-10.2h13.1v61.1l20.8-25.1h13.6l-8 47.6-26.1 39.7 62.2 125.4 98.4-37.3 33.8-24.6c9.7-7 21.3-10.8 33.3-10.8 25.4 0 47.7 16.9 54.5 41.4 13.9 50 34.4 138.1 34.4 222.6h-181.9l9.8-121z" fill="#db3529"/><path id="XMLID_1851_" d="m299.3 386h-105.6c-27.2-54.3-54.9-189.6-54.9-189.6l-27.1-23.1-16.7-85.4 57.5-17.5 17 6.8 7.3-10.2h13.2v61.1l20.8-25.1h13.6l-8 47.6-26.1 39.7 62.2 125.4 29.9-11.3z" fill="#f0917b"/><path id="XMLID_1850_" d="m337.1 91.4c-2.1-1.7-6-4.4-8-4.9-2.1-.3-11.3 1.4-18.6 3.3l-2.5-9.7c6.8-1.7 18.8-4.5 23.5-3.3 4.9 1.2 10.8 5.9 11.9 6.8z" fill="#35322b"/><path id="XMLID_1849_" d="m390 386s16 60 16 121h-81l9.8-121z" fill="#b4271e"/></g></g></svg>