<svg height="512pt" viewBox="0 -27 512.002 512" width="512pt" xmlns="http://www.w3.org/2000/svg"><path d="m202.28125 318.964844c17.761719-17.761719 46.660156-17.761719 64.421875 0 17.761719 17.761718 17.761719 46.660156 0 64.421875l-10.265625 10.265625 63.714844 63.710937 63.714844-63.710937 8.847656 8.847656c17.761718 17.761719 46.660156 17.761719 64.421875 0s17.761719-46.660156 0-64.421875l-8.847657-8.847656 63.714844-63.714844-63.714844-63.714844 10.265626-10.265625c17.761718-17.761718 17.761718-46.660156 0-64.421875-17.761719-17.761719-46.660157-17.761719-64.421876 0l-10.265624 10.265625-63.714844-63.714844-63.714844 63.714844 8.851562 8.851563c17.761719 17.761719 17.761719 46.660156 0 64.417969-17.761718 17.761718-46.660156 17.761718-64.421874 0zm0 0" fill="#cf0050"/><path d="m457.136719 338.078125-8.851563-8.847656 63.714844-63.714844-63.714844-63.714844 10.265625-10.265625c17.644531-17.640625 17.75-46.269531.34375-64.058594l-191.847656 191.851563c17.40625 17.789063 17.296875 46.414063-.34375 64.058594l-10.265625 10.265625 63.714844 63.710937 63.714844-63.710937 8.847656 8.847656c17.761718 17.761719 46.660156 17.761719 64.421875 0s17.761719-46.660156 0-64.421875zm0 0" fill="#cf0050"/><path d="m90.105469 316.867188c0-25.117188 20.433593-45.550782 45.550781-45.550782 25.121094 0 45.554688 20.433594 45.554688 45.550782v14.519531h90.105468v-90.105469h12.511719c25.121094 0 45.554687-20.433594 45.554687-45.554688 0-25.117187-20.433593-45.550781-45.554687-45.550781h-12.511719v-90.105469h-90.105468v-14.515624c0-25.117188-20.433594-45.554688-45.554688-45.554688-25.117188 0-45.550781 20.4375-45.550781 45.554688v14.515624h-90.105469v90.105469h12.515625c25.117187 0 45.550781 20.433594 45.550781 45.550781 0 25.121094-20.433594 45.554688-45.550781 45.554688h-12.515625v90.105469h90.105469zm0 0" fill="#fedc35"/><path d="m283.828125 150.175781h-12.511719v-90.105469h-90.105468v-14.515624c0-24.949219-20.167969-45.269532-45.054688-45.539063v271.3125c24.886719.269531 45.054688 20.589844 45.054688 45.539063v14.519531h90.105468v-90.105469h12.511719c25.121094 0 45.554687-20.433594 45.554687-45.554688 0-25.117187-20.433593-45.550781-45.554687-45.550781zm0 0" fill="#fdc500"/></svg>